<?xml version="1.0" encoding="utf-8"?>
<!-- Generator: Adobe Illustrator 17.1.0, SVG Export Plug-In . SVG Version: 6.00 Build 0)  -->
<!DOCTYPE svg PUBLIC "-//W3C//DTD SVG 1.1//EN" "http://www.w3.org/Graphics/SVG/1.1/DTD/svg11.dtd">
<svg version="1.1" id="Capa_1" xmlns="http://www.w3.org/2000/svg" xmlns:xlink="http://www.w3.org/1999/xlink" x="0px" y="0px"
	 viewBox="0 0 19.3 17.1" enable-background="new 0 0 19.3 17.1" xml:space="preserve">
<path fill="#FFFFFF" d="M7.6,9.2c-0.4,0.4-0.5,0.7-0.9,1.5C7,10.9,7.6,11.4,8,12.2c0.8-0.5,1.2-0.5,1.7-0.9c2.9-2.4,9.9-11,9.6-11.3
	C19-0.3,10.1,6.4,7.6,9.2z M5.9,11.3c-1.2-0.2-2.5,0.6-3.3,2.5c-0.8,2-2.3,2.7-2.6,2.7c1.5,0.6,6.2,2,7.3-3.4
	C6.9,11.8,5.9,11.3,5.9,11.3z"/>
</svg>
