<?xml version="1.0" encoding="utf-8"?>
<!-- Generator: Adobe Illustrator 17.1.0, SVG Export Plug-In . SVG Version: 6.00 Build 0)  -->
<!DOCTYPE svg PUBLIC "-//W3C//DTD SVG 1.1//EN" "http://www.w3.org/Graphics/SVG/1.1/DTD/svg11.dtd">
<svg version="1.1" id="Layer_1" xmlns="http://www.w3.org/2000/svg" xmlns:xlink="http://www.w3.org/1999/xlink" x="0px" y="0px"
	 viewBox="0 0 31.4 26.1" enable-background="new 0 0 31.4 26.1" xml:space="preserve">
<g>
	<path fill="#FFFFFF" d="M25.4,6.8C25,3,21.1,0,16.5,0c-4.7,0-8.5,3-8.9,6.8H0v5l0.9,0.5l5.4,2.8v-1.4h3.7v3.3l4,2.1H18l5-2.7v-2.7
		h3.7v0.7l4-2.2v0l0,0l0.7-0.5v-5H25.4z M9.7,6.8c0.4-2.6,3.3-4.7,6.8-4.7c3.5,0,6.4,2,6.8,4.7H9.7z"/>
	<polygon fill="#FFFFFF" points="26.7,18.9 23,18.9 23,17.1 18.2,19.6 18.1,19.7 18,19.7 14.1,19.7 13.9,19.7 13.8,19.6 10.1,17.7 
		10.1,18.9 6.4,18.9 6.4,15.7 0.9,12.9 0.9,26.1 30.7,26.1 30.7,12.9 26.7,15.1 	"/>
</g>
</svg>
