<?xml version="1.0" encoding="utf-8"?>
<!-- Generator: Adobe Illustrator 17.1.0, SVG Export Plug-In . SVG Version: 6.00 Build 0)  -->
<!DOCTYPE svg PUBLIC "-//W3C//DTD SVG 1.1//EN" "http://www.w3.org/Graphics/SVG/1.1/DTD/svg11.dtd">
<svg version="1.1" id="Layer_1" xmlns="http://www.w3.org/2000/svg" xmlns:xlink="http://www.w3.org/1999/xlink" x="0px" y="0px"
	 viewBox="0 0 48 48" enable-background="new 0 0 48 48" xml:space="preserve">
<path fill="#FFFFFF" d="M47.1,31.5c0-3.1-1.8-5.9-4.7-7l-16.3-6.3l-0.1-2.1c3.1-0.9,5.4-3.8,5.4-7.2c0-4.1-3.3-7.4-7.4-7.4
	c-2,0-4.8,1.6-6.3,3.9c-0.4,0.6-0.4,1.3-0.1,1.9c0.3,0.6,1,1,1.6,1h0c0.6,0,1.2-0.4,1.6-0.9c0.7-1.2,2.1-2,3.2-2
	c2,0,3.6,1.6,3.6,3.6c0,2-1.6,3.6-3.6,3.6c0,0,0,0,0,0c-0.5,0-0.9,0.2-1.3,0.5c-0.3,0.3-0.5,0.8-0.5,1.3l0,3.8L5.7,24.6
	c-2.9,1.1-4.7,3.9-4.7,7v1.2c0,3.4,2.7,6.4,6.1,6.4H41c3.4,0,6.2-3,6.2-6.4L47.1,31.5z M43.3,32.7c0,1.3-1,2.5-2.3,2.5H7.1
	c-1.3,0-2.3-1.2-2.3-2.5v-1.2c0-1.5,0.9-2.8,2.3-3.4l17-6.4l17,6.4c1.4,0.5,2.3,1.9,2.3,3.4L43.3,32.7L43.3,32.7z"/>
</svg>
