<?xml version="1.0" encoding="utf-8"?>
<!-- Generator: Adobe Illustrator 17.1.0, SVG Export Plug-In . SVG Version: 6.00 Build 0)  -->
<!DOCTYPE svg PUBLIC "-//W3C//DTD SVG 1.1//EN" "http://www.w3.org/Graphics/SVG/1.1/DTD/svg11.dtd">
<svg version="1.1" id="Layer_1" xmlns="http://www.w3.org/2000/svg" xmlns:xlink="http://www.w3.org/1999/xlink" x="0px" y="0px"
	 viewBox="0 0 566.9 566.9" enable-background="new 0 0 566.9 566.9" xml:space="preserve">
<g>
	<path fill="#FFFFFF" d="M361,337.7c7.1-13.8,11.2-29.1,12.5-45.8C362.1,303.1,359.2,320.5,361,337.7z"/>
	<path fill="#FFFFFF" d="M205.9,338.1c1.8-17.2-1.1-34.6-12.5-45.8C194.7,309,198.8,324.3,205.9,338.1z"/>
	<path fill="#FFFFFF" d="M238.1,273.1c-0.3-1-0.1-2.1,0.8-3c5.1-4.7,10.6-8.4,17-9.8c3.5-0.8,5,5.7,1.5,6.5
		c-3.7,0.8-7.2,2.5-10.5,4.8c10.9,0.6,21.6,2.4,32.4,4.9v-98.6c-2.4-2.5-10-9.5-20.2-11.4c1.8,8.6,4.1,16.9,7.3,24.9
		c1.6,3.9-3.2,7.3-4.8,3.4c-3.6-8.8-6.2-18-8.1-27.5c-0.4-0.2-0.7-0.4-1-0.6c-0.3-0.2-0.8-0.5-0.9-0.5c-10.2,0.9-20.2,7.9-29.5,20.7
		c0,0.2,0,0.5,0,0.7c0,0.1,0,0.2,0,0.3c11.8,6.4,15.3,18.9,12.9,31.5c8.6-1.3,17.3-2.5,25.7-1.1c-0.2-2-0.3-4-0.3-6.1
		c0-4.3,5.6-4.3,5.6,0c0,2.6,0.1,5.1,0.7,7.6c2.8,1,5.5,2.3,8.1,4.1c3.1,2.1,0.3,7.9-2.8,5.8c-11.9-8.1-25.9-5.4-38.9-3.3
		c-1.8,4.9-4.4,9.7-7.8,13.9c-2.5,3.1-6.4-1.6-3.9-4.7c2.9-3.6,5.2-7.8,6.8-12.2c0.1-0.8,0.3-1.5,0.7-2.1
		c3.2-10.8,1.3-22.1-9.5-27.5c-0.6,0.3-1.1,0.6-1.6,0.7c-0.3,0.1-0.7,0.3-0.9,0.4c-2.4,4-4.9,8.8-7.3,13.9c-1.1,2.4-2.2,4.9-3.3,7.5
		c6.1,8.4,5,11.5,4.6,12.5c-1.2,3.2-4.3,2.5-7,1.8c-0.7-0.2-1.9-0.5-2.7-0.6c-1.9,6-4.3,14.9-6,25.5c0.1,0.1,0.2,0.2,0.3,0.4
		c0.3,0.5,0.7,1,1,1.7c7.4-0.4,14.4,1.4,19.7,5.8c3.5-6.3,9.8-9.5,16.4-8.7c3.5,0.4,3.6,7.1,0,6.7c-5-0.6-9.9,1.2-12.3,6.5
		c2.9,4,4.9,9.4,5.7,16.2c0.5,4.2-4.9,6.1-5.4,1.8c-0.6-5.7-2.3-10.1-4.6-13.5c-1-0.3-1.8-1.2-2-2.4c-4.6-4.8-11.1-6.4-18.3-5.8
		c-0.4,0.5-0.7,1-1.1,1.4c-0.3,0.3-0.7,0.8-0.9,1.1c-0.6,5.9-0.8,11.6-0.7,17.2c0.1,0,0.1,0.1,0.2,0.1c17.3,13.7,21,37.5,17.4,60.9
		c-0.1,0.5-0.2,0.9-0.4,1.2c0.9,1.4,1.8,2.8,2.7,4.2c0.6-0.5,1.2-1.1,1.7-1.6c3-2.9,5.8-5.7,8.1-2.7c1.6,2,0.8,4-1.5,9.7
		c-0.4,1.1-1,2.6-1.4,3.7c1.7,2,3.5,3.9,5.3,5.9c0.1,0,0.2,0,0.3,0c9.8,1.8,18.7-1.6,26.6-8.6c2.9-2.6,5.7,3.3,2.8,5.8
		c-6.8,6.1-14.3,9.4-22.3,9.8c8.8,7.8,19.1,14.6,30.8,20.6c-0.7-1.7-1.2-3.4-1.5-5.2c-6.8-7.2-6.2-17.8-5.4-28.2
		c0.3-4.3,5.9-4.3,5.6,0c-0.4,5.1-1.2,11.2-0.1,16.4c0.4-2.2,1-4.5,1.8-6.7c1.4-4,6.2-0.5,4.8,3.4c-3.3,9.3-1.9,17.8,4.4,24.5
		c0.2,0.2,0.3,0.4,0.4,0.7c1.9,0.9,3.9,1.7,5.9,2.5v-59.8c-0.4-0.3-0.7-0.6-0.9-1.2c-6.5-13.4-16.6-12-27.7-14.5
		c-7-1.6-11.5-5.9-14-13.1c-3.1,2.8-6.1,5.6-8.6,9.3c-2.3,3.3-6.2-1.5-3.9-4.7c3.6-5.1,8.2-8.9,12.6-12.8c1.4-1.3,3.7,0,4.1,2
		c2.5,12.9,10.7,12.8,19.5,14.1c-4.3-8.5-5.6-18.2-4.6-28.3c0.4-4.2,6-4.3,5.6,0c-1.1,10.6,0.5,20,5.9,28.5c0.3,0.5,0.5,1,0.5,1.5
		c4.5,1.6,8.4,4.4,11.6,8.5v-46.1c-12.9-3-25.7-5.1-38.8-5.2C238.1,278,237.3,275.1,238.1,273.1z"/>
	<path fill="#FFFFFF" d="M372.3,265c-0.4-0.4-0.8-0.9-1.1-1.4c-7.2-0.7-13.7,1-18.3,5.8c-0.2,1.2-1,2.1-2,2.4
		c-2.3,3.3-3.9,7.8-4.6,13.5c-0.5,4.3-5.8,2.5-5.4-1.8c0.8-6.8,2.8-12.1,5.7-16.2c-2.4-5.2-7.3-7.1-12.3-6.5c-3.6,0.4-3.5-6.3,0-6.7
		c6.6-0.8,12.9,2.3,16.4,8.7c5.3-4.5,12.3-6.2,19.7-5.8c0.3-0.7,0.7-1.2,1-1.7c0.1-0.1,0.2-0.3,0.3-0.4c-1.7-10.6-4.1-19.5-6-25.5
		c-0.8,0.1-2,0.4-2.7,0.6c-2.7,0.7-5.7,1.4-7-1.8c-0.4-1.1-1.5-4.1,4.6-12.5c-1.1-2.6-2.2-5.1-3.3-7.5c-2.4-5.1-4.9-9.9-7.3-13.9
		c-0.1-0.1-0.6-0.3-0.9-0.4c-0.5-0.2-1-0.4-1.6-0.7c-10.9,5.5-12.8,16.7-9.5,27.5c0.4,0.6,0.7,1.3,0.7,2.1c1.6,4.3,3.9,8.6,6.8,12.2
		c2.5,3.1-1.4,7.9-3.9,4.7c-3.4-4.2-6-9-7.8-13.9c-13-2.1-27-4.8-38.9,3.3c-3.1,2.1-5.9-3.7-2.8-5.8c2.6-1.8,5.3-3.1,8.1-4.1
		c0.6-2.5,0.7-4.9,0.7-7.6c0-4.3,5.6-4.3,5.6,0c0,2.1-0.1,4.1-0.3,6.1c8.4-1.4,17.1-0.2,25.7,1.1c-2.4-12.6,1.1-25,12.9-31.5
		c0-0.1,0-0.2,0-0.3c0-0.3,0-0.5,0-0.7c-9.3-12.8-19.3-19.8-29.5-20.7c-0.2,0-0.6,0.3-0.9,0.5c-0.3,0.2-0.7,0.4-1,0.6
		c-1.9,9.5-4.6,18.7-8.1,27.5c-1.6,3.9-6.4,0.5-4.8-3.4c3.2-8,5.5-16.3,7.3-24.9c-10.1,1.9-17.7,8.9-20.2,11.4V276
		c10.7-2.4,21.5-4.3,32.4-4.9c-3.2-2.3-6.7-4-10.5-4.8c-3.5-0.8-2-7.3,1.5-6.5c6.3,1.4,11.9,5.1,17,9.8c0.9,0.9,1.1,2,0.8,3
		c0.8,2,0,5-2.4,5c-13.1,0.1-26,2.2-38.8,5.2V329c3.2-4.1,7.1-6.8,11.6-8.5c0-0.5,0.2-1,0.5-1.5c5.4-8.6,6.9-18,5.9-28.5
		c-0.4-4.3,5.1-4.2,5.6,0c1,10.1-0.3,19.8-4.6,28.3c8.8-1.3,17-1.2,19.5-14c0.4-2,2.6-3.3,4.1-2c4.4,4,9,7.7,12.6,12.8
		c2.3,3.3-1.6,8.1-3.9,4.7c-2.5-3.6-5.5-6.5-8.6-9.3c-2.5,7.2-7,11.6-14,13.1c-11.1,2.5-21.2,1.1-27.7,14.5
		c-0.3,0.5-0.6,0.9-0.9,1.2v59.8c2-0.8,3.9-1.7,5.9-2.5c0.1-0.2,0.2-0.5,0.4-0.7c6.4-6.7,7.8-15.1,4.4-24.5
		c-1.4-3.9,3.4-7.4,4.8-3.4c0.8,2.3,1.4,4.5,1.8,6.7c1.1-5.2,0.3-11.3-0.1-16.4c-0.3-4.3,5.2-4.3,5.6,0c0.8,10.3,1.4,21-5.4,28.2
		c-0.3,1.8-0.8,3.5-1.5,5.2c11.7-6,21.9-12.9,30.8-20.6c-8-0.5-15.5-3.8-22.3-9.8c-2.8-2.5-0.1-8.4,2.8-5.8
		c7.9,7,16.8,10.4,26.6,8.6c0.1,0,0.2,0,0.3,0c1.8-1.9,3.6-3.9,5.3-5.9c-0.4-1.1-1-2.6-1.4-3.7c-2.3-5.8-3-7.7-1.5-9.7
		c2.3-2.9,5.1-0.2,8.1,2.7c0.5,0.4,1.1,1.1,1.7,1.6c0.9-1.4,1.8-2.8,2.7-4.2c-0.2-0.3-0.3-0.7-0.4-1.2c-3.6-23.3,0.1-47.2,17.4-60.9
		c0.1,0,0.1-0.1,0.2-0.1c0.1-5.6-0.2-11.3-0.7-17.2C373,265.8,372.6,265.3,372.3,265z"/>
	<path fill="#FFFFFF" d="M283.5,0C126.9,0,0,126.9,0,283.5s126.9,283.5,283.5,283.5S566.9,440,566.9,283.5S440,0,283.5,0z
		 M356.9,355.9c-1.4,1.9-3,1.6-4.7,0.4c1,3,1.1,4.4-0.1,5.9c-15.6,19.1-38,34.4-66.4,45.3c-0.3,0.1-0.6,0.2-0.8,0.2
		c-0.4,0-0.7-0.1-1.1-0.3c-0.5,0.5-1.1,0.7-1.7,0.7c-0.3,0-0.6-0.1-0.8-0.2c-28.4-10.9-50.8-26.2-66.4-45.3
		c-1.2-1.5-1.1-2.9-0.1-5.9c-1.7,1.2-3.3,1.5-4.7-0.4c-17.6-24.7-25.1-56.2-21.7-90.9c0.1-1.2,0.6-2.2,1.1-3
		c-0.6-1.4-0.4-3.2,0.8-3.9c-0.5-1-0.8-2.1-0.6-3.5c1.9-12.1,4.7-22.3,6.8-28.7c1.2-3.8,4.8-3.3,7.7-2.6c-0.9-1.5-2-3.2-3.2-4.6
		c-0.8-1-1-2.5-0.5-3.8c1.4-3.4,2.9-6.7,4.3-9.9c2.5-5.3,5.1-10.3,7.8-14.7c1-1.7,2.5-2.2,3.6-2.7c0.1,0,0.3-0.1,0.4-0.2
		c0,0,0-0.1,0.1-0.1c0-0.1,0-0.3,0-0.4c0-1.3,0.1-3.1,1.1-4.5c10.4-14.5,21.7-22.3,33.7-23.4c1.5-0.1,2.8,0.7,3.8,1.3
		c0,0,0.1,0.1,0.2,0.1c0.2,0,0.3-0.1,0.5-0.1c0.7-0.6,1.6-1.3,3-1.1c12.7,1.9,21.9,10.8,24.5,13.6c1.9-2.1,11.4-12,24.9-14
		c1.3-0.2,2.3,0.5,3,1.1c0.2,0,0.3,0,0.5,0.1c0.1,0,0.1-0.1,0.2-0.1c0.9-0.6,2.2-1.4,3.8-1.3c12,1,23.4,8.9,33.7,23.4
		c1,1.4,1.1,3.2,1.1,4.5c0,0.1,0,0.3,0,0.4c0,0,0,0.1,0.1,0.1c0.1,0.1,0.3,0.1,0.4,0.2c1.1,0.4,2.5,1,3.6,2.7
		c2.7,4.4,5.3,9.4,7.8,14.7c1.5,3.1,2.9,6.4,4.3,9.9c0.5,1.3,0.3,2.8-0.5,3.8c-1.2,1.5-2.3,3.2-3.2,4.6c2.9-0.7,6.5-1.2,7.7,2.6
		c2,6.4,4.9,16.5,6.8,28.7c0.2,1.4-0.1,2.5-0.6,3.5c1.2,0.8,1.3,2.5,0.8,3.9c0.6,0.8,1,1.8,1.1,3C382,299.7,374.5,331.1,356.9,355.9
		z"/>
</g>
</svg>
