<?xml version="1.0" encoding="utf-8"?>
<!-- Generator: Adobe Illustrator 17.1.0, SVG Export Plug-In . SVG Version: 6.00 Build 0)  -->
<!DOCTYPE svg PUBLIC "-//W3C//DTD SVG 1.1//EN" "http://www.w3.org/Graphics/SVG/1.1/DTD/svg11.dtd">
<svg version="1.1" id="Layer_1" xmlns="http://www.w3.org/2000/svg" xmlns:xlink="http://www.w3.org/1999/xlink" x="0px" y="0px"
	 viewBox="0 0 100 100" enable-background="new 0 0 100 100" xml:space="preserve">
<path fill="#FFFFFF" d="M67.7,4.4H21.6C18.5,4.4,16,6.9,16,10v80.4c0,3.1,2.5,5.6,5.6,5.6h56.5c3.1,0,5.6-2.5,5.6-5.6V21.7L67.7,4.4
	z M69.1,12.8l7,7.6h-7V12.8z M79,90.4c0,0.5-0.4,0.9-0.9,0.9H21.6c-0.5,0-0.9-0.4-0.9-0.9V10c0-0.5,0.4-0.9,0.9-0.9h42.7v13.7
	c0,1.3,1.1,2.4,2.4,2.4H79C79,25.1,79,90.4,79,90.4z M29,29.5h40.1c1,0,1.8,0.8,1.8,1.8S70.1,33,69.1,33H29c-1,0-1.8-0.8-1.8-1.8
	S28.1,29.5,29,29.5z M70.9,43.1c0,1-0.8,1.8-1.8,1.8H29c-1,0-1.8-0.8-1.8-1.8s0.8-1.8,1.8-1.8h40.1C70.1,41.3,70.9,42.1,70.9,43.1z
	 M70.9,54.6c0,1-0.8,1.8-1.8,1.8H29c-1,0-1.8-0.8-1.8-1.8s0.8-1.8,1.8-1.8h40.1C70.1,52.8,70.9,53.6,70.9,54.6z M70.9,66.3
	c0,1-0.8,1.8-1.8,1.8H29c-1,0-1.8-0.8-1.8-1.8c0-1,0.8-1.8,1.8-1.8h40.1C70.1,64.5,70.9,65.3,70.9,66.3z"/>
</svg>
