<?xml version="1.0" encoding="utf-8"?>
<!-- Generator: Adobe Illustrator 17.1.0, SVG Export Plug-In . SVG Version: 6.00 Build 0)  -->
<!DOCTYPE svg PUBLIC "-//W3C//DTD SVG 1.1//EN" "http://www.w3.org/Graphics/SVG/1.1/DTD/svg11.dtd">
<svg version="1.1" id="Capa_1" xmlns="http://www.w3.org/2000/svg" xmlns:xlink="http://www.w3.org/1999/xlink" x="0px" y="0px"
	 viewBox="0 0 566.9 566.9" enable-background="new 0 0 566.9 566.9" xml:space="preserve">
<g>
	<path fill="#FFFFFF" d="M276.1,207.4v287.3c0,7.5,2.7,14,8.2,19.4c5.4,5.4,11.7,8.1,19.1,8.2c7.3-0.1,13.7-2.8,19.1-8.2
		c5.5-5.5,8.2-12,8.2-19.4V207.4c8.2-2.9,39-30.3,39-39.1V52.7c0-3.7-1.4-7-4.1-9.7c-2.7-2.7-6-4.1-9.7-4.1c-3.7,0-7,1.4-9.7,4.1
		c-2.7,2.7-4.1,6-4.1,9.7v89.8c0,3.7-1.4,7-4.1,9.7c-2.7,2.7-6,4.1-9.7,4.1c-3.7,0-7-1.4-9.7-4.1c-2.7-2.7-4.1-6-4.1-9.7V52.7
		c0-3.7-1.4-7-4.1-9.7c-2.7-2.7-6-4.1-9.7-4.1c-3.7,0-7,1.4-9.7,4.1c-2.7,2.7-4.1,6-4.1,9.7v89.8c0,3.7-1.4,7-4.1,9.7
		c-2.7,2.7-6,4.1-9.7,4.1c-3.7,0-7-1.4-9.7-4.1c-2.7-2.7-4.1-6-4.1-9.7V52.7c0-3.7-1.4-7-4.1-9.7c-2.7-2.7-6-4.1-9.7-4.1
		c-3.7,0-7,1.4-9.7,4.1c-2.7,2.7-4.1,6-4.1,9.7v115.5C231.4,177.1,267.9,204.5,276.1,207.4z"/>
	<path fill="#FFFFFF" d="M303.7,522.3c-0.1,0-0.2,0-0.4,0c-0.1,0-0.2,0-0.4,0H303.7z"/>
	<path fill="#FFFFFF" d="M480.2,528c-0.1,0-0.2,0-0.4,0c-0.1,0-0.2,0-0.4,0H480.2z"/>
	<path fill="#FFFFFF" d="M421.2,276.4h31.4v224c0,7.5,2.7,14,8.2,19.4c5.4,5.4,11.8,8.1,19.1,8.2c7.3-0.1,13.7-2.8,19.1-8.2
		c5.5-5.5,8.2-12,8.2-19.4v-459c0-3.7-1.4-7-4.1-9.7c-2.7-2.7-6-4.1-9.7-4.1h-9.9c-19,0-35.3,6.8-48.8,20.3
		c-13.5,13.5-20.3,29.8-20.3,48.8v172.8c0,1.9,0.7,3.5,2.1,4.9C417.7,275.7,419.3,276.4,421.2,276.4z"/>
</g>
</svg>
