<?xml version="1.0" encoding="iso-8859-1"?>
<!-- Generator: Adobe Illustrator 16.0.0, SVG Export Plug-In . SVG Version: 6.00 Build 0)  -->
<!DOCTYPE svg PUBLIC "-//W3C//DTD SVG 1.1//EN" "http://www.w3.org/Graphics/SVG/1.1/DTD/svg11.dtd">
<svg version="1.1" id="Layer_1" xmlns="http://www.w3.org/2000/svg" xmlns:xlink="http://www.w3.org/1999/xlink" x="0px" y="0px"
	 width="31.376px" height="26.058px" viewBox="0 0 31.376 26.058" style="enable-background:new 0 0 31.376 26.058;"
	 xml:space="preserve">
<g>
	<path d="M25.362,6.789C24.974,2.992,21.133,0,16.46,0c-4.675,0-8.517,2.992-8.903,6.789H0v5.034l0.94,0.471l5.419,2.842v-1.375
		h3.692v3.31l4.014,2.105h3.928l4.996-2.712v-2.703h3.69v0.699l3.991-2.167v-0.001l0.004-0.002l0.701-0.468V6.789H25.362z
		 M9.687,6.789c0.404-2.628,3.283-4.673,6.773-4.673c3.488,0,6.369,2.045,6.773,4.673H9.687z"/>
	<polygon points="26.68,18.949 22.989,18.949 22.989,17.066 18.245,19.64 18.127,19.705 17.993,19.705 14.065,19.705 13.936,19.705 
		13.82,19.644 10.052,17.668 10.052,18.949 6.359,18.949 6.359,15.732 0.94,12.891 0.94,26.058 30.671,26.058 30.671,12.896 
		26.68,15.062 	"/>
</g>
<g>
</g>
<g>
</g>
<g>
</g>
<g>
</g>
<g>
</g>
<g>
</g>
<g>
</g>
<g>
</g>
<g>
</g>
<g>
</g>
<g>
</g>
<g>
</g>
<g>
</g>
<g>
</g>
<g>
</g>
</svg>
