<?xml version="1.0" encoding="utf-8"?>
<!-- Generator: Adobe Illustrator 17.1.0, SVG Export Plug-In . SVG Version: 6.00 Build 0)  -->
<!DOCTYPE svg PUBLIC "-//W3C//DTD SVG 1.1//EN" "http://www.w3.org/Graphics/SVG/1.1/DTD/svg11.dtd">
<svg version="1.1" id="Layer_1" xmlns="http://www.w3.org/2000/svg" xmlns:xlink="http://www.w3.org/1999/xlink" x="0px" y="0px"
	 viewBox="0 0 566.9 566.9" enable-background="new 0 0 566.9 566.9" xml:space="preserve">
<g>
	<path fill="#F2AE73" d="M289.7,187.9c-28,0-51.1,16.4-54.3,37.5H344C340.8,204.3,317.6,187.9,289.7,187.9z"/>
	<path fill="#F2AE73" d="M283.5,0C126.9,0,0,126.9,0,283.5s126.9,283.5,283.5,283.5S566.9,440,566.9,283.5S440,0,283.5,0z
		 M403.7,380H165.2V274.4l43.5,22.8V323h29.6v-10.3l30.2,15.9l0.9,0.5h1H302h1.1l0.9-0.5l38.1-20.6V323h29.6v-31.2l32-17.4V380z
		 M409.3,265.8l-5.6,3.8l0,0v0l-32,17.4v-5.6H342V303L302,324.8h-31.5l-32.2-16.9v-26.6h-29.6v11l-43.5-22.8l-7.5-3.8v-40.4h60.6
		c3.1-30.5,33.9-54.5,71.4-54.5c37.5,0,68.3,24,71.4,54.5h48.2V265.8z"/>
</g>
</svg>
