<?xml version="1.0" encoding="utf-8"?>
<!-- Generator: Adobe Illustrator 17.1.0, SVG Export Plug-In . SVG Version: 6.00 Build 0)  -->
<!DOCTYPE svg PUBLIC "-//W3C//DTD SVG 1.1//EN" "http://www.w3.org/Graphics/SVG/1.1/DTD/svg11.dtd">
<svg version="1.1" id="Layer_4" xmlns="http://www.w3.org/2000/svg" xmlns:xlink="http://www.w3.org/1999/xlink" x="0px" y="0px"
	 viewBox="0 0 100 100" enable-background="new 0 0 100 100" xml:space="preserve">
<g>
	<path fill="#FFFFFF" d="M98.6,72.6c-0.1-0.1-0.2-0.2-0.4-0.2H1.8c-0.1,0-0.3,0.1-0.4,0.2c-0.1,0.1-0.1,0.3-0.1,0.4
		c0,0.1,1.5,9,12.8,9h71.9c11.3,0,12.7-8.9,12.8-9C98.7,72.8,98.7,72.7,98.6,72.6z M57.3,78.9H42.8v-3.3h14.5V78.9z"/>
	<path fill="#FFFFFF" d="M11.8,68.9h76.4c1.1,0,2-0.9,2-2V20c0-1.1-0.9-2-2-2H11.8c-1.1,0-2,0.9-2,2v46.9
		C9.8,68,10.7,68.9,11.8,68.9z M16.8,25h66.4v36.9H16.8V25z"/>
</g>
</svg>
