<?xml version="1.0" encoding="utf-8"?>
<!-- Generator: Adobe Illustrator 17.1.0, SVG Export Plug-In . SVG Version: 6.00 Build 0)  -->
<!DOCTYPE svg PUBLIC "-//W3C//DTD SVG 1.1//EN" "http://www.w3.org/Graphics/SVG/1.1/DTD/svg11.dtd">
<svg version="1.1" id="Layer_1" xmlns="http://www.w3.org/2000/svg" xmlns:xlink="http://www.w3.org/1999/xlink" x="0px" y="0px"
	 viewBox="0 0 566.9 566.9" enable-background="new 0 0 566.9 566.9" xml:space="preserve">
<g>
	<path fill="#FFFFFF" d="M283.5,0C126.9,0,0,126.9,0,283.5s126.9,283.5,283.5,283.5S566.9,440,566.9,283.5S440,0,283.5,0z
		 M228.4,358.1c0,2.5-0.9,4.6-2.7,6.5c-1.8,1.8-4,2.7-6.5,2.7h-41.3c-2.5,0-4.6-0.9-6.5-2.7c-1.8-1.8-2.7-4-2.7-6.5v-91.8
		c0-2.5,0.9-4.6,2.7-6.5c1.8-1.8,4-2.7,6.5-2.7h41.3c2.5,0,4.6,0.9,6.5,2.7c1.8,1.8,2.7,4,2.7,6.5V358.1z M392.5,298.6
		c0.3,7.3-1.8,13.8-6.2,19.7c1.6,5.4,1.6,11,0,16.8c-1.4,5.5-4,9.9-7.7,13.5c0.9,10.7-1.5,19.4-7,26c-6.1,7.3-15.5,11-28.3,11.2
		h-5.2h-10.9h-2.4c-6.3,0-13.2-0.7-20.7-2.2c-7.5-1.5-13.3-2.9-17.4-4.2c-4.2-1.3-9.9-3.2-17.3-5.7c-11.8-4.1-19.3-6.2-22.7-6.3
		c-2.5-0.1-4.6-1-6.5-2.8c-1.8-1.8-2.7-3.9-2.7-6.4v-92c0-2.4,0.9-4.5,2.6-6.2s3.8-2.8,6.2-2.9c2.3-0.2,5.9-3,10.9-8.5
		c5-5.5,9.8-11.2,14.5-17.4c6.5-8.3,11.3-14.1,14.5-17.2c1.7-1.7,3.2-4,4.4-6.9c1.2-2.9,2.1-5.2,2.5-7s1.1-4.7,1.9-8.7
		c0.7-3.7,1.3-6.6,1.8-8.8c0.5-2.1,1.5-4.6,2.8-7.5c1.3-2.9,3-5.3,4.9-7.2c1.8-1.8,4-2.7,6.5-2.7c4.4,0,8.3,0.5,11.8,1.5
		s6.4,2.2,8.6,3.7s4.2,3.4,5.7,5.8c1.6,2.4,2.7,4.5,3.4,6.5c0.7,1.9,1.3,4.3,1.7,7.2c0.4,2.9,0.7,5,0.7,6.5c0,1.4,0.1,3.3,0.1,5.6
		c0,3.6-0.5,7.3-1.4,10.9c-0.9,3.6-1.8,6.5-2.7,8.6c-0.9,2.1-2.2,4.8-3.9,8c-0.3,0.6-0.8,1.4-1.4,2.6s-1.2,2.2-1.6,3.2
		c-0.4,1-0.8,2.1-1.1,3.4h39.8c7.5,0,13.9,2.7,19.4,8.2c5.4,5.5,8.2,11.9,8.2,19.4c0,8.2-2.6,15.4-7.9,21.4
		C391.8,291.9,392.5,295.5,392.5,298.6z"/>
	<path fill="#FFFFFF" d="M196.2,330.6c-2.6,0-4.8,0.9-6.5,2.7c-1.8,1.8-2.7,4-2.7,6.5c0,2.6,0.9,4.8,2.7,6.5
		c1.8,1.8,3.9,2.7,6.5,2.7c2.5,0,4.6-0.9,6.5-2.7c1.8-1.8,2.7-3.9,2.7-6.5c0-2.5-0.9-4.6-2.7-6.5
		C200.9,331.5,198.7,330.6,196.2,330.6z"/>
</g>
</svg>
