<?xml version="1.0" encoding="utf-8"?>
<!-- Generator: Adobe Illustrator 17.1.0, SVG Export Plug-In . SVG Version: 6.00 Build 0)  -->
<!DOCTYPE svg PUBLIC "-//W3C//DTD SVG 1.1//EN" "http://www.w3.org/Graphics/SVG/1.1/DTD/svg11.dtd">
<svg version="1.1" id="Capa_1" xmlns="http://www.w3.org/2000/svg" xmlns:xlink="http://www.w3.org/1999/xlink" x="0px" y="0px"
	 viewBox="0 0 566.9 566.9" enable-background="new 0 0 566.9 566.9" xml:space="preserve">
<g>
	<path fill="#FFFFFF" d="M519.1,232.1c-2.7-16.8-2.7-45.2,13.3-54.9c0,0,0.9,0,0.9-0.9c12.4-4.4,21.3-9.7,14.2-17.7l-186.9-56.7
		l-303,42.5c0,0-34.5,5.3-31.9,58.5c1.8,29.2,10.6,43.4,18.6,50.5l-24.8,7.1c-7.1,8,1.8,13.3,14.2,17.7c0,0,0,0.9,0.9,0.9
		c15.9,9.7,15.1,38.1,13.3,54.9c-55.8,15.9-35.4,21.3-35.4,21.3l12.4,2.7c-8.9,8-16.8,22.1-15.9,50.5c3.5,54,31.9,57.6,31.9,57.6
		l198.4,65.6l299.4-72.6c0,0,20.4-5.3-35.4-21.3c-2.7-16.8-2.7-45.2,13.3-54.9c0,0,0.9,0,0.9-0.9c12.4-4.4,21.3-9.7,14.2-17.7
		l-13.3-3.5c8.9-5.3,22.1-18.6,23.9-54c1.8-24.8-5.3-39-12.4-46.9l25.7-6.2C555.4,252.5,574.9,248,519.1,232.1z M269.3,231.2
		l50.5-10.6L489.9,186l25.7-5.3c-8,15.1-8,35.4-6.2,47.8c0,2.7,0.9,5.3,0.9,8l-27.5,7.1l-214.4,53.1L269.3,231.2z M52.3,283.5
		l25.7,5.3l163,33.7l14.2,2.7l0,0l0,0l42.5,8.9l1.8,65.6L79.7,344.6l-22.1-5.3c0-1.8,0.9-4.4,0.9-8
		C60.2,318.9,61.1,298.5,52.3,283.5z M42.5,200.2c0-14.2,2.7-24.8,7.1-30.1c3.5-3.5,7.1-4.4,9.7-4.4c1.8,0,2.7,0,2.7,0l130.2,42.5
		l65.6,21.3l-1.8,66.4L73.5,245.4l-9.7-2.7h-0.9C62,242.7,43.4,240.9,42.5,200.2z M239.2,502.3l-192.2-54h-0.9
		c-0.9,0-18.6-1.8-19.5-41.6c0-14.2,2.7-24.8,7.1-30.1c3.5-3.5,7.1-4.4,9.7-4.4c1.8,0,2.7,0,2.7,0l0,0l195.8,63.8L239.2,502.3z
		 M491.6,434.9c0,2.7,0.9,5.3,0.9,8l-242.7,60.2l1.8-65.6l52.3-10.6l8,1.8l28.3-9.7l132-27.5l25.7-5.3
		C489.9,401.3,489.9,421.7,491.6,434.9z M504.9,345.5H504l-18.6,5.3l-174.5,48.7l-1.8-66.4l56.7-18.6l139.1-44.3
		c0,0,7.1-1.8,12.4,3.5c5.3,5.3,8,15.9,7.1,30.1C523.5,343.7,505.8,345.5,504.9,345.5z"/>
</g>
</svg>
