<?xml version="1.0" encoding="utf-8"?>
<!-- Generator: Adobe Illustrator 17.1.0, SVG Export Plug-In . SVG Version: 6.00 Build 0)  -->
<!DOCTYPE svg PUBLIC "-//W3C//DTD SVG 1.1//EN" "http://www.w3.org/Graphics/SVG/1.1/DTD/svg11.dtd">
<svg version="1.1" id="Layer_1" xmlns="http://www.w3.org/2000/svg" xmlns:xlink="http://www.w3.org/1999/xlink" x="0px" y="0px"
	 viewBox="0 0 566.9 566.9" enable-background="new 0 0 566.9 566.9" xml:space="preserve">
<g>
	<path fill="#FFFFFF" d="M283.5,0C126.9,0,0,126.9,0,283.5s126.9,283.5,283.5,283.5S566.9,440,566.9,283.5S440,0,283.5,0z
		 M283.3,150.2c13.4,0,24.4,10.9,24.4,24.4S296.7,199,283.3,199c-13.4,0-24.4-10.9-24.4-24.4S269.8,150.2,283.3,150.2z M342.6,287.1
		c-6.2,11.7-14.9,22.1-26.1,29.2l0,14.8v93.6c0,7.7-5.6,13.9-13.5,13.9c-7.9,0-14.3-6.2-14.3-13.9v-97.5c0,0-0.5-4.9-5.5-5
		c-5-0.1-4.9,4.8-4.9,4.8v97.5c0,7.7-6.4,13.9-14.3,13.9c-7.9,0-14.3-6.2-14.3-13.9l-0.5-100.6c0-0.9-0.1-68-0.1-85.9l0.2-3.6
		c-30.1-13.4-49.2-43.3-54.5-75.8c-2.7-16.3,22.2-23.3,24.9-6.9c3.5,21.2,13.3,42.5,31,54.3l0-0.4c11.8-2.4,50.5-6.4,67.8,2.3
		c0.1,0.1,0.1,0.2,0.2,0.3c1.1,0.4,2.2,1,3.3,1.8c10,7.8,16.7,18.6,21.9,30c3.1,6.8,8,16,8,23.8C352,271.7,346,280.7,342.6,287.1z"
		/>
	<path fill="#FFFFFF" d="M328.6,262.6C328.8,261.4,328.6,261.4,328.6,262.6L328.6,262.6z"/>
	<path fill="#FFFFFF" d="M316.4,285.1c2.3-3.1,4.4-6.3,6.3-9.7c1.9-3.3,3.4-6.7,5-10.1c0.3-0.7,0.5-1.3,0.7-1.8
		c-2.7-9.1-6.5-18.1-12.1-25.9L316.4,285.1z"/>
</g>
</svg>
