<?xml version="1.0" encoding="utf-8"?>
<!-- Generator: Adobe Illustrator 17.1.0, SVG Export Plug-In . SVG Version: 6.00 Build 0)  -->
<!DOCTYPE svg PUBLIC "-//W3C//DTD SVG 1.1//EN" "http://www.w3.org/Graphics/SVG/1.1/DTD/svg11.dtd">
<svg version="1.1" id="Layer_1" xmlns="http://www.w3.org/2000/svg" xmlns:xlink="http://www.w3.org/1999/xlink" x="0px" y="0px"
	 viewBox="0 0 20 20" enable-background="new 0 0 20 20" xml:space="preserve">
<g>
	<path fill="#FFFFFF" d="M16.7,6.1C16.7,6.1,16.7,6.1,16.7,6.1c-0.1-0.1-0.3-0.1-0.4,0c-0.1,0.1-0.2,0.2-0.2,0.4
		c0.1,1.2,0,2.3-0.1,3c0,0.1-0.1,0.1-0.1,0.1c-0.1,0-0.1,0-0.1-0.1c-0.4-1.9-1.1-3.5-1.5-4.3c0-0.1-0.1-0.2-0.2-0.2
		c-1.2-0.3-2.3-0.5-3-0.5c-0.1,0-0.2,0-0.3,0.1c-0.1,0.1-0.1,0.2-0.1,0.3c0.4,1.7,0.3,3.7,0.2,4.7c0,0.1-0.1,0.1-0.1,0.1
		c-0.1,0-0.1,0-0.1-0.1C10.2,8.4,9.5,6,8.7,4.7C8.7,4.6,8.5,4.5,8.4,4.5c-1,0.1-2,0.2-2.8,0.6c0,0,0,0,0,0c-0.2,0-0.3,0.2-0.2,0.4
		c0.3,1.6,0.1,3.1,0,3.9c0,0.1-0.1,0.1-0.1,0.1c-0.1,0-0.1,0-0.1-0.1c-0.2-1.2-0.6-2.3-1-3.2C4,6.1,3.9,6.1,3.8,6C3.6,6,3.5,6,3.4,6
		C1.1,7.4,0,9,0,10.6c0,3.4,4.5,3.8,10,3.8s10-0.4,10-3.8C20,9.1,19.1,7.7,16.7,6.1z"/>
</g>
</svg>
