<?xml version="1.0" encoding="utf-8"?>
<!-- Generator: Adobe Illustrator 17.1.0, SVG Export Plug-In . SVG Version: 6.00 Build 0)  -->
<!DOCTYPE svg PUBLIC "-//W3C//DTD SVG 1.1//EN" "http://www.w3.org/Graphics/SVG/1.1/DTD/svg11.dtd">
<svg version="1.1" id="Layer_1" xmlns="http://www.w3.org/2000/svg" xmlns:xlink="http://www.w3.org/1999/xlink" x="0px" y="0px"
	 viewBox="0 0 20 20" enable-background="new 0 0 20 20" xml:space="preserve">
<path fill="#FFFFFF" d="M14.4,6.7c0.1-0.2,0.2-0.5,0.2-0.7c0-0.6-0.3-1-0.7-1.4l3.7-3.8L16.8,0l-3.9,3.9c-0.6-1.4-2-2.3-3.6-2.3
	c-1.5,0-2.8,0.8-3.4,2c0,0,0,0,0,0c-1.2,0-2.2,1-2.2,2.2C3.7,6.3,3.8,6.7,4,7C3.6,7.5,3.3,8.1,3.2,8.9H2.8v0.6c0,3.4,2.6,6.3,6,6.6
	v2.8H6.1V20h6.5v-1.2H9.9V16c3.4-0.3,6-3.1,6-6.6V8.9h-0.4C15.4,7.9,14.9,7.1,14.4,6.7z M9.3,14.9c-2.8,0-5.1-2.1-5.4-4.8h10.8
	C14.4,12.7,12.1,14.9,9.3,14.9z"/>
</svg>
