<?xml version="1.0" encoding="utf-8"?>
<!-- Generator: Adobe Illustrator 17.1.0, SVG Export Plug-In . SVG Version: 6.00 Build 0)  -->
<!DOCTYPE svg PUBLIC "-//W3C//DTD SVG 1.1//EN" "http://www.w3.org/Graphics/SVG/1.1/DTD/svg11.dtd">
<svg version="1.1" id="Layer_1" xmlns="http://www.w3.org/2000/svg" xmlns:xlink="http://www.w3.org/1999/xlink" x="0px" y="0px"
	 viewBox="0 0 20 20" enable-background="new 0 0 20 20" xml:space="preserve">
<g>
	<path fill="#FFFFFF" d="M14.3,0.1c-1.2,0-2.2,0.9-2.3,2.1l-0.6,8.6c0,0.4,0.1,0.7,0.4,1c0.3,0.3,0.6,0.4,1,0.4h0L12.6,19
		c0,0.3,0.1,0.6,0.3,0.8c0.2,0.2,0.5,0.3,0.8,0.3h0.9c0.6,0,1.1-0.5,1.1-1V1.4C15.6,0.7,15,0.1,14.3,0.1z"/>
	<path fill="#FFFFFF" d="M9.2,0.1L9.2,0.1c-0.3,0-0.5,0.2-0.5,0.4v3.8c0,0.3-0.3,0.6-0.6,0.6H8.1c-0.3,0-0.6-0.3-0.6-0.6V0.5
		c0-0.2-0.2-0.4-0.4-0.4H7c-0.2,0-0.4,0.2-0.4,0.4v3.8c0,0.3-0.3,0.6-0.6,0.6H5.9c-0.3,0-0.6-0.3-0.6-0.6V0.5c0-0.2-0.2-0.4-0.4-0.4
		H4.8c-0.2,0-0.4,0.2-0.4,0.4v5.7c0,0.7,0.6,1.3,1.3,1.3h0.2L5.5,19c0,0.3,0.1,0.6,0.3,0.8C6,20,6.3,20.1,6.6,20.1h0.8
		c0.3,0,0.6-0.1,0.8-0.3c0.2-0.2,0.3-0.5,0.3-0.8L8.1,7.5h0.2c0.7,0,1.3-0.6,1.3-1.3V0.5C9.6,0.3,9.5,0.1,9.2,0.1z"/>
</g>
</svg>
