<?xml version="1.0" encoding="utf-8"?>
<!-- Generator: Adobe Illustrator 17.1.0, SVG Export Plug-In . SVG Version: 6.00 Build 0)  -->
<!DOCTYPE svg PUBLIC "-//W3C//DTD SVG 1.1//EN" "http://www.w3.org/Graphics/SVG/1.1/DTD/svg11.dtd">
<svg version="1.1" id="Layer_1" xmlns="http://www.w3.org/2000/svg" xmlns:xlink="http://www.w3.org/1999/xlink" x="0px" y="0px"
	 viewBox="0 0 200 135" enable-background="new 0 0 200 135" xml:space="preserve">
<g>
	<polygon fill="#273476" points="116.8,134 175.4,134 116.8,93.8 	"/>
	<path fill="#273476" d="M0.2,89v28c0,1.1,0.1,2.1,0.3,3.1l44.7-30.4L0.2,89z"/>
	<path fill="#273476" d="M0.5,13.9c-0.2,1-0.3,2.1-0.3,3.1v26.6l44.7,0.7L0.5,13.9z"/>
	<polygon fill="#273476" points="177.3,0.1 116.8,0.1 116.8,41.2 	"/>
	<path fill="#273476" d="M200,43.7V17.1c0-1.1-0.1-2.1-0.3-3.2l-44.4,30.5L200,43.7z"/>
	<path fill="#273476" d="M199.7,120.1c0.2-1,0.3-2.1,0.3-3.1V89l-45,0.7L199.7,120.1z"/>
	<polygon fill="#273476" points="83.4,0.1 22.9,0.1 83.4,41.2 	"/>
	<polygon fill="#273476" points="24.8,134 83.4,134 83.4,93.8 	"/>
	<g>
		<path fill="#FFFFFF" d="M83.4,41.2L22.9,0.1h-5.7c-3.8,0-7.2,1.2-10,3.3L66.7,45H51.8L1.8,9.8c-0.6,1.3-1.1,2.7-1.3,4.1l44.4,30.5
			L0.2,43.7v9.1l58.1,0.9l31.8,0.5v-8.4V0.1h-6.7V41.2z"/>
		<path fill="#FFFFFF" d="M110.1,81.3v7.9V134h6.7V93.8l58.6,40.2h7.7c4.1,0,7.9-1.5,10.8-3.9l-60.3-39.7h14.9l50.4,32.9
			c0.4-1,0.7-2,0.9-3.1L155,89.8l45-0.7V80l-58.2,0.9L110.1,81.3z"/>
		<path fill="#FFFFFF" d="M0.2,80V89l45,0.7L0.5,120.1c0.7,4,2.9,7.5,5.9,10l60.3-39.7h14.9L17.4,134h7.4l58.6-40.2V134h6.7V89.2
			v-7.9l-31.7-0.5L0.2,80z"/>
		<path fill="#FFFFFF" d="M155.3,44.4l44.4-30.5c-0.8-4.3-3.3-8-6.7-10.5L133.5,45h-14.9l64.3-44.9h-5.5l-60.5,41.1V0.1h-6.7v45.6
			v8.4l31.8-0.5l58.1-0.9v-9.1L155.3,44.4z"/>
	</g>
	<polygon fill="#ED2F31" points="141.9,53.6 110.1,54.1 110.1,45.7 110.1,0.1 90.1,0.1 90.1,45.7 90.1,54.1 58.3,53.6 0.2,52.8 
		0.2,80 58.4,80.8 90.1,81.3 90.1,89.2 90.1,134 110.1,134 110.1,89.2 110.1,81.3 141.8,80.8 200,80 200,52.8 	"/>
	<path fill="#ED2F31" d="M51.8,45h14.9L7.1,3.4C4.9,5.1,3,7.3,1.8,9.8L51.8,45z"/>
	<path fill="#ED2F31" d="M118.5,45h14.9L193,3.4c-2.8-2.1-6.3-3.3-10-3.3h-0.2L118.5,45z"/>
	<path fill="#ED2F31" d="M133.5,90.4l60.3,39.7c2.2-1.8,3.9-4.2,5-6.9l-50.4-32.9H133.5z"/>
	<path fill="#ED2F31" d="M66.7,90.4L6.4,130.1c2.9,2.4,6.7,3.9,10.8,3.9h0.2l64.3-43.6H66.7z"/>
</g>
</svg>
