<?xml version="1.0" encoding="utf-8"?>
<!-- Generator: Adobe Illustrator 17.1.0, SVG Export Plug-In . SVG Version: 6.00 Build 0)  -->
<!DOCTYPE svg PUBLIC "-//W3C//DTD SVG 1.1//EN" "http://www.w3.org/Graphics/SVG/1.1/DTD/svg11.dtd">
<svg version="1.1" id="Capa_1" xmlns="http://www.w3.org/2000/svg" xmlns:xlink="http://www.w3.org/1999/xlink" x="0px" y="0px"
	 viewBox="0 0 64 64" enable-background="new 0 0 64 64" xml:space="preserve">
<g>
	<circle fill="#588C75" cx="32.3" cy="11.7" r="4.3"/>
	<path fill="#588C75" d="M43,23.2c-0.9-2-2.1-3.9-3.8-5.3c-0.2-0.1-0.4-0.2-0.6-0.3c0,0,0,0,0,0c-3-1.5-9.8-0.8-11.9-0.4l0,0.1
		c-3.1-2.1-4.8-5.8-5.4-9.5c-0.5-2.9-4.8-1.7-4.4,1.2c0.9,5.7,4.3,10.9,9.5,13.3l0,0.6c0,3.1,0,14.9,0,15l0.1,17.6
		c0,1.3,1.1,2.4,2.5,2.4c1.4,0,2.5-1.1,2.5-2.4v-17c0,0,0-0.8,0.9-0.8c0.9,0,1,0.9,1,0.9v17.1c0,1.3,1.1,2.4,2.5,2.4
		c1.4,0,2.4-1.1,2.4-2.4V39.1l0-2.6c2-1.3,3.5-3.1,4.6-5.1c0.6-1.1,1.6-2.7,1.6-4C44.4,26,43.5,24.4,43,23.2z M40.1,27.6
		c-0.3,0.6-0.5,1.2-0.9,1.8c-0.3,0.6-0.7,1.2-1.1,1.7l0-8.3c1,1.4,1.6,2.9,2.1,4.5C40.2,27.4,40.2,27.5,40.1,27.6z M40.3,27.1
		C40.3,26.9,40.3,26.9,40.3,27.1L40.3,27.1z"/>
</g>
</svg>
