<?xml version="1.0" encoding="utf-8"?>
<!-- Generator: Adobe Illustrator 17.1.0, SVG Export Plug-In . SVG Version: 6.00 Build 0)  -->
<!DOCTYPE svg PUBLIC "-//W3C//DTD SVG 1.1//EN" "http://www.w3.org/Graphics/SVG/1.1/DTD/svg11.dtd">
<svg version="1.1" id="Capa_1" xmlns="http://www.w3.org/2000/svg" xmlns:xlink="http://www.w3.org/1999/xlink" x="0px" y="0px"
	 viewBox="0 0 64 64" enable-background="new 0 0 64 64" xml:space="preserve">
<g>
	<path fill="#588C75" d="M58.6,26.2c-0.3-1.9-0.3-5.1,1.5-6.2c0,0,0.1,0,0.1-0.1c1.4-0.5,2.4-1.1,1.6-2l-21.1-6.4L6.5,16.3
		c0,0-3.9,0.6-3.6,6.6c0.2,3.3,1.2,4.9,2.1,5.7l-2.8,0.8c-0.8,0.9,0.2,1.5,1.6,2c0,0,0,0.1,0.1,0.1c1.8,1.1,1.7,4.3,1.5,6.2
		c-6.3,1.8-4,2.4-4,2.4l1.4,0.3c-1,0.9-1.9,2.5-1.8,5.7c0.4,6.1,3.6,6.5,3.6,6.5L27,60l33.8-8.2c0,0,2.3-0.6-4-2.4
		c-0.3-1.9-0.3-5.1,1.5-6.2c0,0,0.1,0,0.1-0.1c1.4-0.5,2.4-1.1,1.6-2l-1.5-0.4c1-0.6,2.5-2.1,2.7-6.1c0.2-2.8-0.6-4.4-1.4-5.3
		l2.9-0.7C62.7,28.5,64.9,28,58.6,26.2z M30.4,26.1l5.7-1.2L55.3,21l2.9-0.6c-0.9,1.7-0.9,4-0.7,5.4c0,0.3,0.1,0.6,0.1,0.9l-3.1,0.8
		l-24.2,6L30.4,26.1z M5.9,32l2.9,0.6l18.4,3.8l1.6,0.3l0,0l0,0l4.8,1l0.2,7.4L9,38.9l-2.5-0.6c0-0.2,0.1-0.5,0.1-0.9
		C6.8,36,6.9,33.7,5.9,32z M4.8,22.6c0-1.6,0.3-2.8,0.8-3.4c0.4-0.4,0.8-0.5,1.1-0.5c0.2,0,0.3,0,0.3,0l14.7,4.8l7.4,2.4l-0.2,7.5
		L8.3,27.7l-1.1-0.3c0,0-0.1,0-0.1,0C7,27.4,4.9,27.2,4.8,22.6z M27,56.7L5.3,50.6c0,0-0.1,0-0.1,0c-0.1,0-2.1-0.2-2.2-4.7
		c0-1.6,0.3-2.8,0.8-3.4C4.2,42.1,4.6,42,4.9,42c0.2,0,0.3,0,0.3,0c0,0,0,0,0,0l22.1,7.2L27,56.7z M55.5,49.1c0,0.3,0.1,0.6,0.1,0.9
		l-27.4,6.8l0.2-7.4l5.9-1.2l0.9,0.2l3.2-1.1l14.9-3.1l2.9-0.6C55.3,45.3,55.3,47.6,55.5,49.1z M57,39c0,0-0.1,0-0.1,0l-2.1,0.6
		l-19.7,5.5l-0.2-7.5l6.4-2.1L57,30.5c0,0,0.8-0.2,1.4,0.4c0.6,0.6,0.9,1.8,0.8,3.4C59.1,38.8,57.1,39,57,39z"/>
</g>
</svg>
