<?xml version="1.0" encoding="utf-8"?>
<!-- Generator: Adobe Illustrator 17.1.0, SVG Export Plug-In . SVG Version: 6.00 Build 0)  -->
<!DOCTYPE svg PUBLIC "-//W3C//DTD SVG 1.1//EN" "http://www.w3.org/Graphics/SVG/1.1/DTD/svg11.dtd">
<svg version="1.1" id="Layer_1" xmlns="http://www.w3.org/2000/svg" xmlns:xlink="http://www.w3.org/1999/xlink" x="0px" y="0px"
	 viewBox="0 0 200 135" enable-background="new 0 0 200 135" xml:space="preserve">
<g>
	<path fill="#1B5889" d="M86.6,134h96.4c9.4,0,17-7.6,17-17V80.5H86.6V134z"/>
	<path fill="#1B5889" d="M183.1,0H86.6v53.6h113.4V17C200.1,7.7,192.4,0,183.1,0z"/>
	<path fill="#1B5889" d="M0.1,80.5V117c0,9.4,7.6,17,17,17h42.7V80.5H0.1z"/>
	<path fill="#1B5889" d="M59.7,0H17.1c-9.4,0-17,7.6-17,17v36.6h59.7V0z"/>
	<polygon fill="#FDCA33" points="86.6,53.6 86.6,0 59.7,0 59.7,53.6 0.1,53.6 0.1,80.5 59.7,80.5 59.7,134 86.6,134 86.6,80.5 
		200.1,80.5 200.1,53.6 	"/>
</g>
</svg>
