<?xml version="1.0" encoding="utf-8"?>
<!-- Generator: Adobe Illustrator 17.1.0, SVG Export Plug-In . SVG Version: 6.00 Build 0)  -->
<!DOCTYPE svg PUBLIC "-//W3C//DTD SVG 1.1//EN" "http://www.w3.org/Graphics/SVG/1.1/DTD/svg11.dtd">
<svg version="1.1" id="Capa_1" xmlns="http://www.w3.org/2000/svg" xmlns:xlink="http://www.w3.org/1999/xlink" x="0px" y="0px"
	 viewBox="0 0 64 64" enable-background="new 0 0 64 64" xml:space="preserve">
<path fill="#588C75" d="M24.9,27.1c-0.2,0-0.8,0.5-0.8,0.5C24.4,27.7,25.1,27.1,24.9,27.1z M25,27L25,27C24.9,27,24.9,27,25,27
	C25,27,25,27,25,27z M46.4,4.7c3.2,0,5.8,2.6,5.8,5.8s-2.6,5.8-5.8,5.8s-5.8-2.6-5.8-5.8S43.2,4.7,46.4,4.7z M11.5,29.6h1.6v-0.7
	h-1.6c-0.4,0-0.7-0.1-0.8-0.2c-0.1-0.1,0-0.3,0-0.3l0-4.5H9.9v4.4c0,0.2-0.1,0.5,0.2,0.9C10.3,29.4,10.8,29.6,11.5,29.6z M60.7,40.2
	l-0.2-1.7c-0.8-6.7-0.9-6.9-0.5-18.7c0-0.4-0.3-0.8-0.7-0.8c-0.4,0-0.8,0.3-0.8,0.7c-0.3,11.9-0.3,12.2,0.6,19l0.2,1.7
	c0.2,1.6,0,2.8-0.5,3.2c-0.7,0.5-1.8,0.1-1.9,0c-5.5-1.7-12.4,1.8-12.6,1.9c-0.4,0.2-0.5,0.6-0.3,1c0.1,0.3,0.4,0.4,0.7,0.4
	c0.1,0,0.2,0,0.3-0.1c0,0,3.1-1.6,6.6-2.1v11.6h-3.1c-0.6,0-1.1,0.5-1.1,1.1c0,0.6,0.5,1.1,1.1,1.1h8.8c0.6,0,1.1-0.5,1.1-1.1
	c0-0.6-0.5-1.1-1.1-1.1h-2.9V44.7c0.7,0,1.4,0.2,2,0.4c0.1,0,1.9,0.8,3.3-0.2C60.6,44,61,42.5,60.7,40.2z M57.1,36.8
	c-0.1-4.9-1.7-9.6-1.9-14.5C55.1,15.2,44.1,15,44.1,22c-4.2,0.7-8.4,1.1-12.6,0.9c-3.9-0.2-3.9,5.8,0,6c4.5,0.2,8.9-0.2,13.3-0.9
	c0.5,2.6,1,5.2,1.2,7.9C36.8,39,31.7,46.7,30.4,56.5c0,0.1,0,0.1,0,0.2V35h5.7v-5.1H15.6c0-0.1,0-0.1,0-0.2c0-0.1,0-0.1,0-0.2
	c0-0.4,0.1-0.6,0.5-0.7c0.1,0,0.2,0,0.4,0v0.4H22c0.2,0,0.3,0.1,0.5,0.1c0.2,0,0.4-0.1,0.5-0.2c0.1-0.1,0.1-0.2,0.1-0.3
	c0-0.1,0-0.2,0.1-0.3c0.1-0.1,0.2-0.2,0.3-0.2c-0.1,0.2-0.2,0.5-0.2,0.7h6.3c0-1.2-1.4-2.2-3.1-2.2c-0.5,0-1,0.1-1.5,0.3
	c0.1,1-0.9,0.9-1.2,0.9c0,0.1-0.1,0.1-0.1,0.2c0,0,0,0,0,0c-0.2,0-0.4,0.1-0.5,0.2c-0.1,0.1-0.1,0.3-0.1,0.4c0,0.1,0,0.2,0,0.2
	c-0.1,0.1-0.2,0.1-0.3,0.1v-0.9h-6.1v0.5c-0.2,0-0.3,0-0.4,0c-0.5,0.1-0.6,0.4-0.7,0.8c0,0.1,0,0.1,0,0.2c0,0.1,0,0.2,0,0.2H4V35
	h3.1v24.9h23.3v-2.5c0.4,3.8,6.9,3.5,7.5-0.9c1-7.6,5.4-12.6,12.8-14.3C53.8,42.6,57.2,40.9,57.1,36.8z M12.4,13l0.9,13.4l-2.5,0.2
	L10,13.2L12.4,13z"/>
</svg>
